#tb 0: 1/15
#tb 1: 1/22050
0,          0,          0,        1,   230400, 0xfbf2581e
1,          0,          0,     1468,     5872, 0x00000000
1,       1468,       1468,     1468,     5872, 0x00000000
0,          1,          1,        1,   230400, 0xfbf2581e
1,       2936,       2936,     1468,     5872, 0x00000000
0,          2,          2,        1,   230400, 0xfbf2581e
1,       4404,       4404,     1468,     5872, 0x00000000
0,          3,          3,        1,   230400, 0xfbf2581e
1,       5872,       5872,     1468,     5872, 0x00000000
0,          4,          4,        1,   230400, 0xfbf2581e
1,       7340,       7340,     1468,     5872, 0x00000000
0,          5,          5,        1,   230400, 0xfbf2581e
1,       8808,       8808,     1468,     5872, 0x00000000
0,          6,          6,        1,   230400, 0xfbf2581e
1,      10276,      10276,     1468,     5872, 0x00000000
0,          7,          7,        1,   230400, 0xfbf2581e
1,      11744,      11744,     1468,     5872, 0x00000000
0,          8,          8,        1,   230400, 0xfbf2581e
1,      13212,      13212,     1468,     5872, 0x00000000
0,          9,          9,        1,   230400, 0xfbf2581e
1,      14680,      14680,     1468,     5872, 0x00000000
0,         10,         10,        1,   230400, 0xfbf2581e
1,      16148,      16148,     1468,     5872, 0x00000000
0,         11,         11,        1,   230400, 0xfbf2581e
1,      17616,      17616,     1468,     5872, 0x00000000
0,         12,         12,        1,   230400, 0xfbf2581e
1,      19084,      19084,     1468,     5872, 0x00000000
0,         13,         13,        1,   230400, 0xfbf2581e
1,      20552,      20552,     1468,     5872, 0x00000000
0,         14,         14,        1,   230400, 0xfbf2581e
1,      22020,      22020,     1468,     5872, 0xc6f64777
0,         15,         15,        1,   230400, 0xf5a0a21d
1,      23488,      23488,     1468,     5872, 0x7c9e60e8
0,         16,         16,        1,   230400, 0x909cc039
1,      24956,      24956,     1468,     5872, 0x46525c54
0,         17,         17,        1,   230400, 0x14d899dd
1,      26424,      26424,     1468,     5872, 0x842796bb
0,         18,         18,        1,   230400, 0x0d246edf
1,      27892,      27892,     1468,     5872, 0xb1f6cbd5
0,         19,         19,        1,   230400, 0x5345fe0d
1,      29360,      29360,     1468,     5872, 0x0261a74b
0,         20,         20,        1,   230400, 0x5abdff9a
1,      30828,      30828,     1468,     5872, 0x8218b1f9
0,         21,         21,        1,   230400, 0x1730d973
1,      32296,      32296,     1468,     5872, 0xd7a2cae6
0,         22,         22,        1,   230400, 0xec881be9
1,      33764,      33764,     1468,     5872, 0x69d34562
0,         23,         23,        1,   230400, 0xf4216895
1,      35232,      35232,     1468,     5872, 0x9303ec65
0,         24,         24,        1,   230400, 0x529d7a52
1,      36700,      36700,     1468,     5872, 0xd5d963a1
0,         25,         25,        1,   230400, 0x93b4c7b9
1,      38168,      38168,     1468,     5872, 0x0557e06f
0,         26,         26,        1,   230400, 0xedc65bcd
1,      39636,      39636,     1468,     5872, 0x1eb48b41
0,         27,         27,        1,   230400, 0xf0fb54ae
1,      41104,      41104,     1468,     5872, 0x70f5ca3f
0,         28,         28,        1,   230400, 0x27864ce9
1,      42572,      42572,     1468,     5872, 0xd39e5c5e
0,         29,         29,        1,   230400, 0xcd05012d
1,      44040,      44040,     1468,     5872, 0x29c59140
0,         30,         30,        1,   230400, 0x019b6d84
1,      45508,      45508,     1468,     5872, 0x7d95e643
0,         31,         31,        1,   230400, 0xcc05d416
1,      46976,      46976,     1468,     5872, 0x45353fd8
0,         32,         32,        1,   230400, 0xb04c0248
1,      48444,      48444,     1468,     5872, 0xad7b1b27
0,         33,         33,        1,   230400, 0x6806eb92
1,      49912,      49912,     1468,     5872, 0x1f0377b3
0,         34,         34,        1,   230400, 0x60e9c001
1,      51380,      51380,     1468,     5872, 0x6074541e
0,         35,         35,        1,   230400, 0x9b040261
1,      52848,      52848,     1468,     5872, 0xa4f5e892
0,         36,         36,        1,   230400, 0x6961fb90
1,      54316,      54316,     1468,     5872, 0x084bc696
0,         37,         37,        1,   230400, 0xbf67ad24
1,      55784,      55784,     1468,     5872, 0x67fdafce
0,         38,         38,        1,   230400, 0x2270f328
1,      57252,      57252,     1468,     5872, 0x8dfd249d
0,         39,         39,        1,   230400, 0xd0c345f6
1,      58720,      58720,     1468,     5872, 0x514184ee
0,         40,         40,        1,   230400, 0xfd159212
1,      60188,      60188,     1468,     5872, 0xc0090b0d
0,         41,         41,        1,   230400, 0x085578ff
1,      61656,      61656,     1468,     5872, 0xc1171cc8
0,         42,         42,        1,   230400, 0xcca8afa6
1,      63124,      63124,     1468,     5872, 0x7d7dd07e
0,         43,         43,        1,   230400, 0x901ec91c
1,      64592,      64592,     1468,     5872, 0xe6aa619c
0,         44,         44,        1,   230400, 0xf1cb99f3
1,      66060,      66060,     1468,     5872, 0xd5aac0df
0,         45,         45,        1,   230400, 0x86d98f0c
1,      67528,      67528,     1468,     5872, 0x3b68b390
0,         46,         46,        1,   230400, 0x52970700
